<svg xmlns="http://www.w3.org/2000/svg" viewBox="0 0 158.8 158.8">
  <g data-name="Layer 1">
    <path fill="#F05B78" d="M146.1 121.6a1.6 1.6 0 0 0-.7-1L117.7 104a1.5 1.5 0 0 0-2 .4 43.7 43.7 0 0 1-72.8 0 1.5 1.5 0 0 0-2-.5l-27.7 16.6a1.6 1.6 0 0 0-.5 2.2 79.4 79.4 0 0 0 133.1.2 1.6 1.6 0 0 0 .2-1.2"/>
    <path fill="#4F2D32" d="M79.4 37.7a41.8 41.8 0 0 1 37.1 22.7H42.3a41.8 41.8 0 0 1 37.1-22.7m79 50.6a81.7 81.7 0 0 0 .4-8.9A79.4 79.4 0 0 0 23.3 23.3a79.5 79.5 0 0 0-22.8 65A1.6 1.6 0 0 0 2 89.7h154.7a1.6 1.6 0 0 0 1.5-1.4"/>
  </g>
</svg>
